<?xml version="1.0" encoding="UTF-8" standalone="no"?>
<svg xml:space="preserve" version="1.1" viewBox="0 0 1000 1000" id="svg2"
    xmlns:inkscape="http://www.inkscape.org/namespaces/inkscape"
    xmlns:sodipodi="http://sodipodi.sourceforge.net/DTD/sodipodi-0.dtd"
    xmlns="http://www.w3.org/2000/svg" xmlns:svg="http://www.w3.org/2000/svg"
    xmlns:rdf="http://www.w3.org/1999/02/22-rdf-syntax-ns#"
    xmlns:cc="http://creativecommons.org/ns#"
    xmlns:dc="http://purl.org/dc/elements/1.1/"><sodipodi:namedview  id="namedview1"  pagecolor="#ffffff"  bordercolor="#000000"  borderopacity="0.25" /><defs  id="defs2" /> 
<path  d="m 614.37908,0 c 0,1.76471 0,3.52941 0,5.39216 0,63.33333 -51.33986,114.65686 -114.65686,114.65686 -63.33333,0 -114.65686,-51.33987 -114.65686,-114.65686 v 0 c 0,-1.86275 0,-3.62745 0,-5.39216 H 0 V 999.99991 H 1000 V 0 Z"  fill="#654ff0"  id="path1"  style="display:inline;fill:#dc0021;fill-opacity:1;stroke-width:1.63399" /><path  style="font-weight:600;font-size:465.127px;font-family:Sans;-inkscape-font-specification:'Sans, Semi-Bold';fill:#ffffff;stroke-width:1.09692"  d="m 556.45163,725.63156 q 0,49.96481 -42.47009,81.30638 -42.24298,31.11445 -114.91908,31.11445 -42.01587,0 -73.35743,-7.2676 -31.11446,-7.49473 -58.36799,-18.85037 v -81.07927 h 9.53873 q 27.02643,21.57572 60.41201,33.15847 33.61269,11.58275 64.50003,11.58275 7.94895,0 20.89438,-1.36267 12.94543,-1.36268 21.12149,-4.54226 9.99297,-4.08803 16.35212,-10.22007 6.58627,-6.13205 6.58627,-18.16903 0,-11.12853 -9.53873,-19.07747 -9.31163,-8.17606 -27.48065,-12.49121 -19.07748,-4.54225 -40.42608,-8.40317 -21.12149,-4.08803 -39.74474,-10.22008 -42.69721,-13.85388 -61.54757,-37.47361 -18.62325,-23.84684 -18.62325,-59.04933 0,-47.23946 42.24298,-76.99124 42.4701,-29.97889 109.01415,-29.97889 33.38558,0 65.86271,6.58628 32.70424,6.35915 56.55109,16.125 v 77.89969 h -9.31163 q -20.44015,-16.35212 -50.19193,-27.25353 -29.52466,-11.12853 -60.412,-11.12853 -10.90142,0 -21.80283,1.58979 -10.6743,1.36268 -20.66727,5.45071 -8.8574,3.40669 -15.21655,10.44719 -6.35916,6.81338 -6.35916,15.67078 0,13.39966 10.22007,20.66727 10.22008,7.04049 38.60918,12.94542 18.62325,3.86092 35.65671,7.49473 17.26057,3.6338 37.01939,9.99296 38.83628,12.71832 57.23242,34.74826 18.62325,21.80283 18.62325,56.7782 z"  id="text1"  transform="scale(0.90597878,1.1037786)"  aria-label="S" /><path  style="font-weight:600;font-size:449.516px;font-family:Sans;-inkscape-font-specification:'Sans, Semi-Bold';font-variation-settings:'wght' 600;fill:#ffffff;stroke-width:1.0601"  d="m 1099.9271,466.6669 -88.0155,326.82095 H 918.62821 L 860.02431,580.58233 802.95686,793.48785 H 709.67351 L 621.65793,466.6669 h 88.01558 l 50.26326,224.97749 60.14032,-224.97749 h 84.06476 l 57.28695,224.97749 52.6777,-224.97749 z"  id="text2"  transform="scale(0.86092051,1.1615474)"  aria-label="W" /></svg>